# xmcd
#
# Track frame offsets:
#	150
#	16651
#	37393
#	55938
#	73806
#	92065
#	106955
#	127614
#	143435
#	159937
#	179350
#	196179
#	212641
#	231681
#	247672
#	267363
#
# Disc length: 3778
#
# Revision: 2
# Processed by: cddbd v1.5.1PL2 Copyright (c) Steve Scherf et al.
# Submitted via: kTunes Lite (development) 1.0patch43.34
#
DISCID=d60ec010
DTITLE=Country Hits Vol. 182 - SC-8936
DYEAR=2005
DGENRE=Karaoke
TTITLE0=Toby Keith - You Caught Me At A Bad Time
TTITLE1=Faith Hill - Like We Never Loved At All
TTITLE2=Reba McEntire - You're Gonna Be (Always Loved By Me)
TTITLE3=Keith Anderson - XXL
TTITLE4=Brad Paisley - Flowers
TTITLE5=Toby KeithToby Keith - Big Blue Note
TTITLE6=Faith Hill - Stealing Kisses
TTITLE7=Martina McBride - (I Never Promised You A) Rose Garden
TTITLE8=George Strait - She Let Herself Go
TTITLE9=Gary Allan - Best I Ever Had
TTITLE10=Gretchen Wilson - All Jacked Up
TTITLE11=Alan Jackson - USA Today
TTITLE12=Kenny Chesney - Who You'd Be Today
TTITLE13=Catherine Britt and Elton John - Where We Both Say Goodbye
TTITLE14=Billy Currington - Must Be Doin’ Somethin’ Right
TTITLE15=Catherine Britt and Elton John - Where We Both Say Goodbye (Duet Version)
EXTD=
EXTT0=
EXTT1=
EXTT2=
EXTT3=
EXTT4=
EXTT5=
EXTT6=
EXTT7=
EXTT8=
EXTT9=
EXTT10=
EXTT11=
EXTT12=
EXTT13=
EXTT14=
EXTT15=
PLAYORDER=
